<?xml version="1.0" standalone="no"?>
<!DOCTYPE svg PUBLIC "-//W3C//DTD SVG 20010904//EN"
 "http://www.w3.org/TR/2001/REC-SVG-20010904/DTD/svg10.dtd">
<svg version="1.0" xmlns="http://www.w3.org/2000/svg"
 width="640.000000pt" height="640.000000pt" viewBox="0 0 640.000000 640.000000"
 preserveAspectRatio="xMidYMid meet">
<metadata>
Created by potrace 1.14, written by Peter Selinger 2001-2017
</metadata>
<g transform="translate(0.000000,640.000000) scale(0.100000,-0.100000)"
fill="#000000" stroke="none">
<path d="M5591 6379 c-12 -12 -36 -43 -52 -69 -23 -37 -40 -52 -72 -63 -23 -9
-94 -34 -157 -57 -63 -22 -122 -43 -130 -45 -8 -2 -32 -11 -52 -19 -21 -9 -39
-16 -40 -15 -2 1 -48 -12 -103 -29 -106 -33 -343 -98 -385 -106 -14 -3 -56
-12 -95 -20 -38 -8 -86 -18 -105 -21 -19 -3 -48 -8 -65 -11 -49 -11 -94 -14
-240 -19 l-140 -4 2 -35 c1 -19 18 -64 38 -101 l35 -67 -29 -11 -29 -11 20
-42 c21 -42 41 -48 75 -22 8 6 37 -17 95 -74 81 -81 179 -163 266 -222 23 -16
42 -32 42 -36 0 -4 -9 -15 -20 -25 -21 -19 -27 -45 -11 -45 5 0 16 -7 25 -15
15 -15 46 -11 46 6 0 18 47 28 74 16 14 -7 26 -15 26 -19 0 -5 6 -8 14 -8 8 0
16 -3 18 -7 2 -5 25 -19 51 -33 67 -35 70 -41 43 -81 -70 -102 -126 -192 -126
-200 0 -5 -4 -9 -8 -9 -5 0 -19 -18 -31 -41 l-23 -41 -127 7 c-365 20 -689 27
-1246 27 -648 0 -1061 -12 -1395 -38 -36 -3 -87 -7 -115 -9 -27 -2 -77 -7
-110 -11 -33 -4 -71 -8 -85 -9 -14 -1 -25 -3 -25 -4 0 -1 -13 -4 -30 -6 -102
-14 -116 -22 -207 -128 -48 -56 -102 -122 -119 -147 -18 -24 -41 -53 -51 -64
-10 -11 -18 -26 -18 -33 0 -7 -4 -13 -10 -13 -5 0 -10 -7 -10 -15 0 -8 -3 -15
-7 -15 -7 0 -35 -44 -117 -183 -26 -44 -140 -273 -161 -322 -9 -22 -23 -52
-31 -67 -9 -16 -12 -28 -8 -28 3 0 1 -7 -6 -15 -7 -8 -9 -15 -4 -15 5 0 4 -4
-1 -8 -8 -6 -58 -132 -69 -177 -2 -5 -6 -17 -9 -25 -9 -25 -31 -94 -33 -107
-1 -7 -9 -34 -18 -60 -9 -26 -17 -62 -19 -78 -2 -17 -6 -35 -9 -41 -6 -9 -19
-69 -24 -109 -1 -11 -3 -21 -4 -22 -5 -6 -21 -105 -35 -213 -28 -220 -28 -626
1 -810 4 -30 13 -80 28 -175 2 -11 11 -53 21 -94 9 -40 18 -78 20 -85 1 -6 5
-18 8 -26 3 -8 17 -51 30 -95 26 -83 54 -157 88 -231 10 -24 19 -46 19 -50 0
-4 6 -15 14 -23 7 -9 24 -36 38 -61 143 -270 477 -602 789 -786 108 -63 288
-153 320 -159 10 -2 27 -8 38 -14 39 -21 289 -104 348 -116 10 -1 45 -10 77
-18 33 -9 63 -14 68 -11 4 3 8 1 8 -3 0 -5 8 -9 18 -9 9 -1 33 -4 52 -8 74
-14 147 -26 185 -30 22 -3 51 -7 65 -10 27 -5 91 -11 240 -23 195 -15 644 -8
785 12 17 3 48 7 69 10 21 3 48 7 60 10 12 2 38 7 58 10 21 2 59 10 85 16 27
6 59 13 73 15 14 3 33 7 42 10 9 3 27 7 40 9 62 12 375 118 425 143 29 16 138
66 143 67 6 1 119 61 145 78 81 50 220 141 231 150 14 13 17 15 84 67 24 19
52 42 61 50 8 8 33 31 55 51 207 191 416 494 499 724 10 28 22 55 26 60 4 6
21 57 38 115 44 154 62 237 76 355 4 28 8 61 11 75 25 148 25 669 0 806 -2 10
-7 46 -11 79 -4 32 -9 67 -11 77 -11 49 -14 65 -19 98 -4 29 -17 84 -49 210
-2 8 -10 35 -17 60 -7 25 -13 50 -15 55 -5 25 -79 234 -94 270 -10 22 -26 60
-36 85 -30 73 -180 366 -194 380 -3 3 -11 16 -18 30 -11 23 -27 49 -44 74
-130 184 -171 242 -177 246 -4 3 -12 12 -17 21 -10 19 -108 133 -142 165 -21
21 -83 37 -182 49 -25 3 -61 7 -80 10 -19 3 -59 7 -89 10 -30 3 -57 7 -59 10
-2 2 9 21 24 42 33 43 51 71 61 93 4 8 10 17 13 20 4 3 24 32 45 65 20 33 39
61 40 63 2 2 87 -37 128 -59 9 -5 42 -19 72 -30 52 -19 54 -21 44 -46 -11 -30
-4 -41 31 -45 21 -3 26 2 28 25 2 15 4 27 6 27 1 0 35 -11 74 -24 40 -14 72
-23 72 -20 0 3 8 0 18 -5 9 -5 31 -11 49 -14 17 -3 36 -7 40 -10 5 -3 29 -8
53 -12 25 -4 65 -10 90 -15 25 -5 72 -12 105 -15 70 -8 75 -10 75 -34 0 -30
53 -21 60 9 3 14 9 20 12 15 6 -10 154 -12 164 -3 2 3 -2 25 -9 49 -29 89 -58
188 -62 208 -2 12 -7 26 -10 31 -3 5 -8 18 -10 27 -3 10 -14 52 -26 93 -17 61
-46 179 -95 383 -2 9 -6 27 -10 40 -3 12 -7 33 -10 47 -3 14 -14 63 -24 110
-11 47 -22 96 -24 110 -2 14 -11 59 -20 100 -9 41 -23 108 -32 148 l-15 73 30
46 c39 59 41 105 6 121 -36 17 -48 15 -74 -9z"/>
</g>
</svg>
