<?xml version="1.0" encoding="UTF-8"?><svg id="empty_glass" xmlns="http://www.w3.org/2000/svg" viewBox="0 0 1000 1000"><defs><style>.cls-1{opacity:.2;}.cls-1,.cls-2,.cls-3,.cls-4,.cls-5{stroke-miterlimit:10;}.cls-1,.cls-4{fill:#d1d3d4;stroke:#d1d3d4;}.cls-2{opacity:.16;stroke:#939598;}.cls-2,.cls-3{fill:#bcbec0;}.cls-3{opacity:.24;stroke:#a7a9ac;}.cls-4{opacity:.5;}.cls-5{fill:none;stroke:#e6e7e8;}</style></defs><path class="cls-1" d="m732.85,13.14s10.24-8.11-233.33-8.11-233.33,8.11-233.33,8.11c-20.05,41.97-40.33,87-53.64,123.12-35.08,95.23-110.26,263.96-25.06,437.7,85.2,173.75,291.55,201.59,291.55,201.59v101.35c0,52.35-218.7,84.86-218.7,84.86h479.34s-5-.78-5-.78l5,.78s-.75-.11-2.15-.33c-22.65-3.53-216.55-35.24-216.55-84.53,0-52.35,0-101.35,0-101.35,0,0,206.35-27.84,291.55-201.59,85.2-173.75,10.02-342.48-25.06-437.7-13.31-36.13-33.59-81.15-53.64-123.12"/><rect class="cls-4" x="243.73" y="961.77" width="512.53" height="33.2" rx="4.39" ry="4.39"/><ellipse class="cls-5" cx="500.22" cy="766.65" rx="35.03" ry="5.43"/><path class="cls-3" d="m465.19,766.65s-132.91-32.3-184.7-87.98c-51.79-55.69-60.14-56.8-90.21-125.85-30.07-69.05-37.31-113.05-27.84-192.12,9.47-79.08,47.33-195.46,47.33-195.46L269.43,14.49s36.85,6.76,230.1,6.76,231.05-6.76,231.05-6.76l59.66,150.73s37.87,116.39,47.33,195.46c9.47,79.08,2.23,123.07-27.84,192.12-30.07,69.05-38.42,70.17-90.21,125.85-51.79,55.69-184.7,87.98-184.7,87.98,0,0-1.23-5.43-34.59-5.43s-35.03,5.43-35.03,5.43Z"/><ellipse class="cls-2" cx="499.52" cy="13.14" rx="233.33" ry="8.11"/></svg>