<?xml version="1.0" encoding="UTF-8"?><svg id="balloon_glass" xmlns="http://www.w3.org/2000/svg" viewBox="0 0 1000 1000"><defs><style>.cls-1{opacity:.2;}.cls-1,.cls-2,.cls-3{fill:#d1d3d4;stroke:#231f20;stroke-miterlimit:10;}.cls-2{opacity:.4;}.cls-3{opacity:.3;}</style></defs><rect class="cls-2" x="359.21" y="781.83" width="247.08" height="15.27" rx="7.63" ry="7.63"/><path class="cls-3" d="m595.75,169.24c215.15,277.54-100.04,295.47-100.04,295.47,0,0,0,118.33,0,220.89,0,102.55,19.72,96.23,19.72,96.23h-65.35s19.72,6.32,19.72-96.23v-220.89s-315.19-17.93-100.04-295.47c0,0,7.5,8.19,113.67,8.19s112.67-7.7,112.67-7.7"/><ellipse class="cls-3" cx="482.75" cy="459.8" rx="12.95" ry="1.97"/><ellipse class="cls-1" cx="483.42" cy="168.46" rx="113.67" ry="8.96"/><path class="cls-1" d="m594.71,170.33c205.86,282.47-98.64,289.92-98.64,289.92,0,0-3.35,1.51-13.32,1.51s-13.35-1.98-13.35-1.98h.39s-304.5-7.44-98.64-289.91c0,0,10.44,7.56,112.27,7.56s111.29-7.09,111.29-7.09Z"/></svg>