<?xml version="1.0" encoding="UTF-8"?><svg id="balloon_glass_full" xmlns="http://www.w3.org/2000/svg" viewBox="0 0 1000 1000"><defs><style>.cls-1{fill:none;opacity:.5;}</style></defs><path class="cls-1" d="m350.81,199.13s7.84-6.02,131.91-6.02,131.91,6.02,131.91,6.02c0,0,31.17,45.72,44.52,91.63,0,0,12.32,35.39,4.44,69.75,0,0-2.65,26.03-30.83,52.39,0,0-38.67,41.31-136.67,47.36,0,0-2.96,1.51-13.32,1.51s-12.95-1.97-12.95-1.97c0,0-34.21-.24-75.61-13.76,0,0-33.95-12.2-41.1-18.66,0,0-20.68-13.79-22.42-17.24s-20.22-18.73-21.47-29.7c0,0-11.61-20.27-9.14-54.49,0,0,3.54-34.35,13.5-55.76,0,0,15.23-38.31,37.24-71.05Z"/></svg>