<?xml version="1.0" encoding="UTF-8"?><svg id="beer_glass" xmlns="http://www.w3.org/2000/svg" viewBox="0 0 1000 1000"><defs><style>.cls-1{fill:none;}.cls-1,.cls-2,.cls-3,.cls-4{stroke:#231f20;stroke-miterlimit:10;}.cls-2,.cls-3,.cls-4,.cls-5{fill:#d1d3d4;}.cls-2,.cls-5{opacity:.2;}.cls-3{opacity:.4;}.cls-4{opacity:.3;}</style></defs><line class="cls-1" x1="371.52" y1="791.11" x2="371.52" y2="791.11"/><line class="cls-1" x1="524.9" y1="791.11" x2="524.9" y2="791.11"/><path class="cls-2" d="m608.65,763.5l.22,10.35s-3.32,26.76-160.64,26.78h-.66c-157.31-.03-160.64-26.79-160.64-26.79l.21-10.35s13.89-63.05,113.64-64.93h94.18s89.16-5.16,113.68,64.95Z"/><ellipse class="cls-4" cx="448.22" cy="209.79" rx="161.1" ry="9.96"/><path class="cls-2" d="m287.1,654.03s4.63,26.94,160.17,26.94h-.95s3.83,0,3.83,0h-1c154.88,0,159.49-26.94,159.49-26.94v110.04s-14.93-65.52-112.4-65.52-98.65,0-98.65,0c0,0-87.42-3.98-110.48,64.93v-109.45Z"/><path class="cls-2" d="m609.32,209.79s.66,9.96-161.56,9.96-160.64-9.96-160.64-9.96v555.24s13.35-66.48,113.67-66.48h94.18c100.32,0,113.67,66.48,113.67,66.48l.9-555.46"/><path class="cls-5" d="m317.78,670.07c-4.02-.5-16.53-5.41-16.53-5.41v-164.91c0-4.75,3.72-8.64,8.27-8.64h0c4.55,0,8.27,3.89,8.27,8.64v170.32Z"/><path class="cls-5" d="m367.19,677.83c-3.86-.02-26.68-3.23-26.68-3.23v-170.15c0-7.34,6-13.34,13.34-13.34h0c7.34,0,13.34,6,13.34,13.34v173.37Z"/><path class="cls-5" d="m427.57,680.81c-2.08-.03-31.37-.98-31.37-.98v-172.28c0-9.04,7.06-16.43,15.68-16.43h0c8.63,0,15.68,7.4,15.68,16.43v173.26Z"/><path class="cls-5" d="m466.03,680.85s28.61-.58,31.37-.8v-172.5c0-9.04-7.06-16.43-15.68-16.43h0c-8.63,0-15.68,7.4-15.68,16.43v173.3Z"/><path class="cls-5" d="m553.09,674.97c-3.52.77-26.68,3.09-26.68,3.09v-173.6c0-7.34,6-13.34,13.34-13.34h0c7.34,0,13.34,6,13.34,13.34v170.51Z"/><path class="cls-5" d="m592.35,665.57c-2.45,1.5-16.53,5.07-16.53,5.07v-169.88c0-4.75,3.72-8.64,8.27-8.64h0c4.55,0,8.27,3.89,8.27,8.64v164.81Z"/><path class="cls-3" d="m609.51,251.36h95.26s57.78,2.08,66.11,55.7c8.33,53.62,44.77,136.73,0,363.01,0,0-7.81,39.91-29.67,39.91h-131.7.58-1.45v-34.36h79.48c5.07,0,9.66-.26,13.8-.72,20.34-2.25,35.95-19.11,37-39.55,9.15-178.66,7.91-246.4-1.35-289.77-5.95-27.86-9.11-35.66-18.22-42.36-6.95-5.11-15.48-7.61-24.1-7.61h-86.12l.38-44.25Z"/></svg>