<?xml version="1.0" encoding="UTF-8"?><svg id="beer_pilsner_glass" xmlns="http://www.w3.org/2000/svg" viewBox="0 0 1000 1000"><defs><style>.cls-1{opacity:.2;}.cls-1,.cls-2{fill:#d1d3d4;}.cls-1,.cls-2,.cls-3{stroke:#231f20;stroke-miterlimit:10;}.cls-2,.cls-3{opacity:.4;}.cls-3{fill:#f1f2f2;}</style></defs><ellipse class="cls-1" cx="500" cy="763.46" rx="101.53" ry="3.18"/><ellipse class="cls-2" cx="500.01" cy="197" rx="139.17" ry="2.5"/><path class="cls-2" d="m398.63,763.46s.51,3.18,101,3.18,101.9-3.09,101.9-3.09c0,0,15.46,25.12,19.94,29.15,0,0-2.09,12.81-121.8,12.81s-120.98-12.81-120.98-12.81l19.94-29.24Z"/><path class="cls-1" d="m635.6,199.22c7.66,106.89-12.07,171.67-22.08,199.64-10.01,27.97-33.57,80.68-43.33,212.3-9.76,131.62,31.34,152.29,31.34,152.29v.09s-2,3.09-101.53,3.09c-85.86,0-99.02-2.37-101.02-3.02-.32-.1-.35-.16-.35-.16,0,0,40.96-20.67,31.19-152.29-9.76-131.62-33.32-184.33-43.33-212.3s-29.74-92.75-22.08-199.64l-.07-1.66s20.74,1.95,135.68,1.95,135.37-1.78,135.37-1.78l.22,1.5Z"/><path class="cls-3" d="m639.17,197s4.63,2.5-139.17,2.5-139.17-2.34-139.17-2.34c0,67.72-10.28,104.24,29.18,224.38s35.92,198.46,35.92,256.18-47.41,114.98-47.41,114.98c0,0,2.55,12.81,121.46,12.81,118.91,0,121.46-12.81,121.46-12.81,0,0-47.41-57.27-47.41-114.98s-3.53-136.04,35.92-256.18c39.46-120.14,29.18-156.65,29.18-224.38"/></svg>