<?xml version="1.0" encoding="UTF-8"?><svg id="beer_pilsner_glass_full" xmlns="http://www.w3.org/2000/svg" viewBox="0 0 1000 1000"><defs><style>.cls-1{fill:none;opacity:.5;}</style></defs><path class="cls-1" d="m363.15,226.04s-3.68-4.14,136.98-4.14,136.98,4.14,136.98,4.14c0,0,.9,66.48-4.5,92.86,0,0-7.73,53.26-19.1,79.96,0,0-13.57,35.84-14.79,42.32,0,0-13.24,42.06-14.02,56.56,0,0-12.47,67.59-14.24,109.79s-8.32,118.5,29.63,155c0,0,18.83,4.1-99.93,4.1s-101.18-3.02-101.18-3.02c0,0,22.6-15.64,29.56-69.07s-.02-95.01-2.71-126.79-16.39-111.5-24.78-127.85c0,0-28.41-78.57-27.01-84.01,0,0-15.21-77.61-10.88-129.87Z"/></svg>