<?xml version="1.0" encoding="UTF-8"?><svg id="brandy_snifter_glass" xmlns="http://www.w3.org/2000/svg" viewBox="0 0 1000 1000"><defs><style>.cls-1{opacity:.2;}.cls-1,.cls-2,.cls-3,.cls-4,.cls-5{stroke-miterlimit:10;}.cls-1,.cls-4{fill:#d1d3d4;stroke:#d1d3d4;}.cls-2{opacity:.16;stroke:#939598;}.cls-2,.cls-3{fill:#bcbec0;}.cls-3{opacity:.24;stroke:#a7a9ac;}.cls-4{opacity:.5;}.cls-5{fill:none;stroke:#e6e7e8;}</style></defs><path class="cls-1" d="m651.45,183.35s6.66-5.28-151.76-5.28-151.76,5.28-151.76,5.28c-13.04,27.3-26.23,56.58-34.89,80.08-22.82,61.93-71.71,171.68-16.3,284.68,55.42,113,189.62,131.11,189.62,131.11v65.92c0,34.05-142.25,55.19-142.25,55.19h311.76s-3.25-.51-3.25-.51l3.25.51s-.49-.07-1.4-.21c-14.73-2.3-140.85-22.92-140.85-54.98,0-34.05,0-65.92,0-65.92,0,0,134.21-18.11,189.62-131.11,55.42-113,6.52-222.75-16.3-284.68-8.66-23.5-21.85-52.78-34.89-80.08"/><rect class="cls-4" x="333.32" y="800.34" width="333.35" height="21.59" rx="10.8" ry="10.8"/><ellipse class="cls-5" cx="500.14" cy="673.43" rx="22.78" ry="3.53"/><path class="cls-3" d="m477.36,673.43s-86.45-21.01-120.13-57.23c-33.68-36.22-39.12-36.94-58.68-81.86-19.56-44.91-24.27-73.52-18.11-124.96,6.16-51.43,30.79-127.13,30.79-127.13l38.81-98.04s23.96,4.4,149.65,4.4,150.27-4.4,150.27-4.4l38.81,98.04s24.63,75.7,30.79,127.13c6.16,51.43,1.45,80.04-18.11,124.96-19.56,44.91-24.99,45.64-58.68,81.86-33.68,36.22-120.13,57.23-120.13,57.23,0,0-.8-3.53-22.5-3.53s-22.78,3.53-22.78,3.53Z"/><ellipse class="cls-2" cx="499.69" cy="183.35" rx="151.76" ry="5.28"/></svg>