<?xml version="1.0" encoding="UTF-8"?><svg id="champagne_flute_glass" xmlns="http://www.w3.org/2000/svg" viewBox="0 0 1000 1000"><defs><style>.cls-1{opacity:.2;}.cls-1,.cls-2{fill:#d1d3d4;stroke:#231f20;stroke-miterlimit:10;}.cls-2{opacity:.3;}</style></defs><path class="cls-1" d="m637.16,803.06s-129.86-29.36-129.86-69.76c0-40.4,0-146.4,0-146.4,0,0,54.16-22.17,64.93-55.02,10.7-32.62,24.37-113.11,7.09-267.8-.12-1.08-.24-2.17-.37-3.26-17.85-156.83.25,2.18.25,2.18l-7.96-69.92s-4.88,4.84-71,4.84-70.67-6.25-70.67-6.25l-8.76,71.32s18.09-159.01.25-2.18c-.12,1.09-.25,2.18-.37,3.26-17.29,154.69-3.61,235.18,7.09,267.8,10.77,32.85,64.93,55.02,64.93,55.02v146.4c0,40.4-129.86,69.76-129.86,69.76"/><rect class="cls-2" x="357.08" y="803.06" width="285.84" height="11.51" rx="5.3" ry="5.3"/><ellipse class="cls-1" cx="500.24" cy="191.67" rx="70.67" ry="6.25"/><ellipse class="cls-1" cx="500" cy="558.27" rx="40.76" ry="3.95"/><path class="cls-1" d="m431.6,192.89s11.16,5.02,68.65,5.02,68.16-4.46,68.16-4.46c0,0,15.41,182.35,15.41,203.75s-7.06,118.53-19.47,140.86c-12.4,22.33-23.59,19.92-23.59,19.92,0,0,2.1,4.24-40.76,4.24s-40.76-4.24-40.76-4.24c0,0-11.18,2.42-23.59-19.95-12.4-22.37-19.47-119.65-19.47-141.08s15.41-204.06,15.41-204.06"/></svg>