<?xml version="1.0" encoding="UTF-8"?><svg id="cocktail_glass" xmlns="http://www.w3.org/2000/svg" viewBox="0 0 1000 1000"><defs><style>.cls-1,.cls-2,.cls-3,.cls-4,.cls-5{stroke-miterlimit:10;}.cls-1,.cls-3{opacity:.2;}.cls-1,.cls-3,.cls-5{fill:#d1d3d4;}.cls-1,.cls-4,.cls-5{stroke:#231f20;}.cls-2{fill:none;}.cls-2,.cls-3{stroke:#d1d3d4;}.cls-4{fill:#bcbec0;opacity:.1;}.cls-5{opacity:.3;}</style></defs><path class="cls-4" d="m792.92,127.41c-24,10.75-292.92,10.75-292.92,10.75-221.74,0-287.81-9.27-287.81-9.27l271.94,302.37L212.58,129.9l-1.26-1.4,272.81,302.75h31.74L793.69,126.57l-277.81,304.69"/><rect class="cls-5" x="255.22" y="865.3" width="489.56" height="19.72" rx="9.86" ry="9.86"/><ellipse class="cls-4" cx="500" cy="126.57" rx="293.69" ry="11.59"/><ellipse class="cls-2" cx="500" cy="423.86" rx="17.6" ry="4.5"/><path class="cls-3" d="m787.81,128.89l-270.21,294.97s-1.34,4.5-17.6,4.5-17.6-4.5-17.6-4.5L216.09,129.54s45.89,8.62,283.91,8.62,287.81-9.27,287.81-9.27Z"/><path class="cls-1" d="m733.26,865.3h-466.49s217.37-41.39,217.37-79.17v-354.88h31.74v354.88c0,37.78,217.39,79.17,217.39,79.17Z"/></svg>