<?xml version="1.0" encoding="UTF-8"?><svg id="coffee_mug" xmlns="http://www.w3.org/2000/svg" viewBox="0 0 1000 1000"><defs><style>.cls-1{fill:#f1f2f2;}.cls-2{fill:#e6e7e8;}</style></defs><ellipse class="cls-2" cx="440.18" cy="253.01" rx="215.45" ry="11.82"/><path class="cls-1" d="m666.87,313.12c-8.76-6.78-11.24-18.07-11.24-18.07v-41.2s-16.05,10.98-215.45,10.98-215.45-11.43-215.45-11.43v438.82s1.53,11.82,215.45,11.82,215.45-11.82,215.45-11.82v-74.89c5.11-11.3,14.16-16.57,14.16-16.57,56.64,0,91.67,24.85,134.88-134.04,43.21-158.89-129.04-146.84-137.8-153.62Zm106.56,115.93c-17.52,162.9-90.21,144.95-102.91,144.51s-14.89-9.63-14.89-9.63v-205.38c0-29.78,13.58-27.15,13.58-27.15,126.56,14.01,104.22,97.65,104.22,97.65Z"/></svg>