<?xml version="1.0" encoding="UTF-8"?><svg id="copper_mug" xmlns="http://www.w3.org/2000/svg" viewBox="0 0 1000 1000"><defs><style>.cls-1{fill:none;}.cls-1,.cls-2,.cls-3,.cls-4,.cls-5,.cls-6{stroke-miterlimit:10;}.cls-1,.cls-3,.cls-4,.cls-5{stroke:#231f20;}.cls-7,.cls-2,.cls-3{fill:#cd7f32;}.cls-2{stroke:#cd7f32;}.cls-8,.cls-5{fill:#d1d3d4;}.cls-4{fill:#c49a6c;}.cls-6{fill:#c27f32;stroke:#c27f32;stroke-width:.25px;}</style></defs><polygon class="cls-7" points="604.09 728.35 610.31 721.19 618.82 607.33 597 619.75 604.09 728.35"/><polygon class="cls-8" points="331.43 256.46 377.34 257.66 368.08 264.07 331.43 256.46"/><path class="cls-2" d="m446.59,751.88l169.08-489.71s-28.52,6.2-176.75,6.2-175.57-7.78-175.57-7.78l-1.88,11.06,183.45,480.35"/><path class="cls-2" d="m445.77,754.26s131.39,1.85,160.91-29.19l9.7-461.94-1.88-2.54"/><path class="cls-3" d="m438.48,754.29c150.32,0,169.07-29.22,169.07-29.22"/><path class="cls-3" d="m270.28,725.07s-.53-.71-1.52-2.1c-16.82-23.74-165.04-244.9-7.47-459.63l.86-1.17"/><path class="cls-2" d="m447.73,754.26l-9.26.04c-149.54,0-168.19-29.22-168.19-29.22l-8.12-462.9,1.18-1.58-1.88,2.54"/><path class="cls-5" d="m438.92,268.37c-169.07,0-175.57-7.78-175.57-7.78,0,0-13.75-4.76,6.94-10.15"/><path class="cls-3" d="m607.55,725.07s175.75-234.47,8.98-461.73l-.86-1.17"/><ellipse class="cls-6" cx="577" cy="333.03" rx="17.49" ry="25.07"/><ellipse class="cls-6" cx="655.59" cy="388.48" rx="12.24" ry="19.93" transform="translate(-88.62 224.58) rotate(-18.23)"/><ellipse class="cls-6" cx="666.36" cy="442.4" rx="19.93" ry="12.24" transform="translate(94.01 1001.13) rotate(-77.89)"/><ellipse class="cls-6" cx="633.41" cy="337.03" rx="19.93" ry="12.24" transform="translate(171.01 885.64) rotate(-77.89)"/><ellipse class="cls-6" cx="607.55" cy="295.69" rx="12.24" ry="19.93" transform="translate(-67.93 312.43) rotate(-27.37)"/><path class="cls-5" d="m262.16,262.18l1.18-1.58s17.75,7.78,175.57,7.78c169.07,0,175.57-7.78,175.57-7.78,0,0,13.75-4.76-6.94-10.15"/><ellipse class="cls-6" cx="663.27" cy="534.91" rx="19.93" ry="12.24" transform="translate(1.12 1071.21) rotate(-77.89)"/><ellipse class="cls-6" cx="641.98" cy="619.75" rx="19.93" ry="12.24" transform="translate(-98.65 1117.45) rotate(-77.89)"/><ellipse class="cls-6" cx="597" cy="704.03" rx="19.93" ry="12.24" transform="translate(-216.59 1140.06) rotate(-77.89)"/><ellipse class="cls-6" cx="671.02" cy="488.66" rx="12.24" ry="19.93" transform="translate(-119.19 234.43) rotate(-18.23)"/><ellipse class="cls-6" cx="653.42" cy="580.79" rx="12.24" ry="19.93" transform="translate(-148.89 233.55) rotate(-18.23)"/><ellipse class="cls-6" cx="619.27" cy="661.89" rx="12.24" ry="19.93" transform="translate(-175.97 226.94) rotate(-18.23)"/><ellipse class="cls-6" cx="611.74" cy="400.25" rx="25.07" ry="17.49" transform="translate(113.59 935.3) rotate(-80.24)"/><ellipse class="cls-6" cx="623.11" cy="466.84" rx="17.49" ry="25.07" transform="translate(-114.76 218.35) rotate(-18.23)"/><ellipse class="cls-6" cx="616.37" cy="537.13" rx="25.07" ry="17.49" transform="translate(-17.47 1053.53) rotate(-80.24)"/><ellipse class="cls-6" cx="594.49" cy="605.4" rx="17.49" ry="25.07" transform="translate(-140.05 180.68) rotate(-15.48)"/><ellipse class="cls-6" cx="568.76" cy="661.89" rx="25.07" ry="17.49" transform="translate(-243.01 982.23) rotate(-70.86)"/><ellipse class="cls-6" cx="536.47" cy="712.99" rx="17.49" ry="25.07" transform="translate(-217.86 236.4) rotate(-20.76)"/><ellipse class="cls-6" cx="523.01" cy="635.03" rx="19.8" ry="24.12" transform="translate(-191.11 226.57) rotate(-20.76)"/><ellipse class="cls-6" cx="540.69" cy="580.79" rx="24.12" ry="19.8" transform="translate(-241.94 711.74) rotate(-56.55)"/><ellipse class="cls-6" cx="564.25" cy="507.44" rx="19.8" ry="24.12" transform="translate(-130.42 201.97) rotate(-18.23)"/><ellipse class="cls-6" cx="564.25" cy="434.34" rx="24.12" ry="19.8" transform="translate(-11.89 852.79) rotate(-73.58)"/><ellipse class="cls-6" cx="537.79" cy="368.16" rx="19.8" ry="24.12" transform="translate(-110.44 435.67) rotate(-40.34)"/><path class="cls-1" d="m449.56,754.24s-161.35,4.45-182.04-33.05"/><ellipse class="cls-6" cx="466.97" cy="572.79" rx="24.12" ry="19.8" transform="translate(-214.46 858.79) rotate(-73.58)"/><ellipse class="cls-6" cx="464.81" cy="300.85" rx="19.8" ry="24.12" transform="translate(-70.79 160.5) rotate(-18.23)"/><ellipse class="cls-6" cx="510.8" cy="473.75" rx="19.8" ry="24.12" transform="translate(-122.56 183.56) rotate(-18.23)"/><ellipse class="cls-6" cx="478.38" cy="719.14" rx="24.12" ry="19.8" transform="translate(-385.33 721.84) rotate(-56.55)"/><ellipse class="cls-6" cx="470.77" cy="645.25" rx="24.12" ry="19.8" transform="translate(-327.1 682.32) rotate(-56.55)"/><ellipse class="cls-6" cx="507.15" cy="534.91" rx="19.8" ry="24.12" transform="translate(-199.51 325.24) rotate(-30)"/><ellipse class="cls-6" cx="507.15" cy="408.25" rx="19.8" ry="24.12" transform="translate(-136.18 308.27) rotate(-30)"/><ellipse class="cls-6" cx="464.19" cy="496.27" rx="24.12" ry="19.8" transform="translate(-118.41 846.03) rotate(-77.89)"/><ellipse class="cls-6" cx="532.01" cy="303.13" rx="24.12" ry="19.8" transform="translate(-14.18 579.9) rotate(-56.55)"/><ellipse class="cls-6" cx="462.55" cy="428.39" rx="19.8" ry="24.12" transform="translate(-63.9 81.51) rotate(-9.42)"/><ellipse class="cls-6" cx="466.97" cy="366.69" rx="24.12" ry="19.8" transform="translate(-96.4 554.16) rotate(-56.55)"/><ellipse class="cls-6" cx="299.96" cy="333.03" rx="17.49" ry="25.07"/><ellipse class="cls-6" cx="221.37" cy="388.48" rx="19.93" ry="12.24" transform="translate(-216.86 477.22) rotate(-71.77)"/><ellipse class="cls-6" cx="210.6" cy="442.4" rx="12.24" ry="19.93" transform="translate(-88.12 54.02) rotate(-12.11)"/><ellipse class="cls-6" cx="243.55" cy="337.03" rx="12.24" ry="19.93" transform="translate(-65.28 58.59) rotate(-12.11)"/><ellipse class="cls-6" cx="269.41" cy="295.69" rx="19.93" ry="12.24" transform="translate(-117.04 398.99) rotate(-62.63)"/><ellipse class="cls-6" cx="213.69" cy="534.91" rx="12.24" ry="19.93" transform="translate(-107.46 56.73) rotate(-12.11)"/><ellipse class="cls-6" cx="234.97" cy="619.75" rx="12.24" ry="19.93" transform="translate(-124.78 63.08) rotate(-12.11)"/><ellipse class="cls-6" cx="279.95" cy="704.03" rx="12.24" ry="19.93" transform="translate(-141.46 74.39) rotate(-12.11)"/><ellipse class="cls-6" cx="205.72" cy="488.66" rx="19.93" ry="12.24" transform="translate(-322.77 531.2) rotate(-71.77)"/><ellipse class="cls-6" cx="223.53" cy="580.79" rx="19.93" ry="12.24" transform="translate(-398.04 611.42) rotate(-71.77)"/><ellipse class="cls-6" cx="257.69" cy="661.89" rx="19.93" ry="12.24" transform="translate(-451.59 699.59) rotate(-71.77)"/><ellipse class="cls-6" cx="265.21" cy="400.25" rx="17.49" ry="25.07" transform="translate(-64.01 50.75) rotate(-9.76)"/><ellipse class="cls-6" cx="253.84" cy="466.84" rx="25.07" ry="17.49" transform="translate(-268.97 561.91) rotate(-71.77)"/><ellipse class="cls-6" cx="260.58" cy="537.13" rx="17.49" ry="25.07" transform="translate(-87.28 51.95) rotate(-9.76)"/><ellipse class="cls-6" cx="282.47" cy="605.4" rx="25.07" ry="17.49" transform="translate(-376.37 715.99) rotate(-74.52)"/><ellipse class="cls-6" cx="308.19" cy="661.89" rx="17.49" ry="25.07" transform="translate(-199.95 137.61) rotate(-19.14)"/><ellipse class="cls-6" cx="340.49" cy="712.99" rx="25.07" ry="17.49" transform="translate(-446.89 778.69) rotate(-69.24)"/><ellipse class="cls-6" cx="353.94" cy="635.03" rx="24.12" ry="19.8" transform="translate(-365.31 740.95) rotate(-69.24)"/><ellipse class="cls-6" cx="336.27" cy="580.79" rx="19.8" ry="24.12" transform="translate(-264.46 281.59) rotate(-33.45)"/><ellipse class="cls-6" cx="312.71" cy="507.44" rx="24.12" ry="19.8" transform="translate(-267.09 645.72) rotate(-71.77)"/><ellipse class="cls-6" cx="312.71" cy="434.34" rx="19.8" ry="24.12" transform="translate(-110.03 106.12) rotate(-16.42)"/><ellipse class="cls-6" cx="339.16" cy="368.16" rx="24.12" ry="19.8" transform="translate(-161 388.35) rotate(-49.66)"/><ellipse class="cls-6" cx="413.57" cy="599.98" rx="19.8" ry="24.12" transform="translate(-152.74 141.39) rotate(-16.42)"/><ellipse class="cls-6" cx="412.14" cy="300.85" rx="24.12" ry="19.8" transform="translate(-2.54 598.2) rotate(-71.77)"/><ellipse class="cls-6" cx="366.15" cy="473.75" rx="24.12" ry="19.8" transform="translate(-198.36 673.33) rotate(-71.77)"/><ellipse class="cls-6" cx="398.57" cy="719.14" rx="19.8" ry="24.12" transform="translate(-330.41 338.86) rotate(-33.45)"/><ellipse class="cls-6" cx="409.98" cy="657.93" rx="19.8" ry="24.12" transform="translate(-294.77 335.01) rotate(-33.45)"/><ellipse class="cls-6" cx="369.8" cy="534.91" rx="24.12" ry="19.8" transform="translate(-278.35 587.72) rotate(-60)"/><ellipse class="cls-6" cx="369.8" cy="408.25" rx="24.12" ry="19.8" transform="translate(-168.65 524.38) rotate(-60)"/><ellipse class="cls-6" cx="416.69" cy="527.65" rx="19.8" ry="24.12" transform="translate(-101.41 99.15) rotate(-12.11)"/><ellipse class="cls-6" cx="344.95" cy="303.13" rx="19.8" ry="24.12" transform="translate(-109.96 240.38) rotate(-33.45)"/><ellipse class="cls-6" cx="416.69" cy="448.32" rx="24.12" ry="19.8" transform="translate(-93.8 785.99) rotate(-80.58)"/><ellipse class="cls-6" cx="409.98" cy="366.69" rx="19.8" ry="24.12" transform="translate(-134.22 286.76) rotate(-33.45)"/><path class="cls-4" d="m682.3,411.41l47.38-11.16v28.14l44.89-32.85c162.66,159.74,0,262.39,0,262.39l-46.06-43.19v30.51l-69.71-17.45-16.82,42.33h90.03l33.81,33.9c243.11-178.89,0-353.38,0-353.38l-36.15,28.81h-55.03l7.65,31.96Z"/><path class="cls-1" d="m270.28,251.03s12.85,6.63,168.28,6.63,170.06-6.92,170.06-6.92"/><ellipse class="cls-3" cx="438.92" cy="251.03" rx="168.63" ry="5.43"/></svg>