<?xml version="1.0" encoding="UTF-8"?><svg id="coupe_glass" xmlns="http://www.w3.org/2000/svg" viewBox="0 0 1000 1000"><defs><style>.cls-1{opacity:.2;}.cls-1,.cls-2{fill:#d1d3d4;stroke:#231f20;stroke-miterlimit:10;}.cls-2{opacity:.3;}</style></defs><rect class="cls-2" x="347.66" y="798.17" width="304.89" height="19.75" rx="9.87" ry="9.87"/><path class="cls-1" d="m722.98,181.22c0,159.67-162.36,154.7-184.88,154.7-22.53,0-25.18,27.62-25.18,27.62v287.42c0,143.77,60.29,147.21,60.29,147.21h-146.2s60.29-3.44,60.29-147.21v-287.42s-2.65-27.62-25.18-27.62-185.51,4.97-185.51-154.7c0,0,18.25,7.6,223.18,7.6s223.18-7.6,223.18-7.6Z"/><ellipse class="cls-1" cx="499.79" cy="180.52" rx="223.18" ry="8.3"/><ellipse class="cls-2" cx="499.35" cy="333.44" rx="24.6" ry="4.97"/><path class="cls-1" d="m718.52,182.01c0,166.09-194.57,151.43-194.57,151.43,0,0,1.92,4.97-24.6,4.97s-24.6-4.97-24.6-4.97c0,0-194.57,14.66-194.57-151.43,0,0,23.37,6.81,219.62,6.81s218.72-6.81,218.72-6.81Z"/></svg>