<?xml version="1.0" encoding="UTF-8"?><svg id="highball_glass" xmlns="http://www.w3.org/2000/svg" viewBox="0 0 1000 1000"><defs><style>.cls-1,.cls-2{opacity:.2;}.cls-1,.cls-2,.cls-3,.cls-4{fill:#d1d3d4;stroke-miterlimit:10;}.cls-1,.cls-3,.cls-4{stroke:#231f20;}.cls-2{stroke:#939598;}.cls-3{opacity:.1;}.cls-4{opacity:.3;}</style></defs><ellipse class="cls-1" cx="492.5" cy="154.33" rx="141.23" ry="3.83"/><path class="cls-4" d="m633.73,154.95s-13.85,3.21-141.23,3.21-141.23-3.83-141.23-3.83v616.53c0,34.59,23.77,38.77,23.77,38.77,0,0,17.62,4.46,116.76,4.46s116.76-4.46,116.76-4.46c0,0,25.17-3.99,25.17-58.23V154.5"/><path class="cls-2" d="m633.73,412.42v-248.73s-6.47,3.83-141.23,3.83c-134.76,0-141.23-3.83-141.23-3.83v248.73s4.33,260.72,4.33,284.01c0,23.29,7.91,26.38,7.91,26.38,0,0,5.24,7.37,128.99,7.37s128.99-7.37,128.99-7.37c0,0,7.91-3.1,7.91-26.38s4.33-284.01,4.33-284.01Z"/><ellipse class="cls-3" cx="492.5" cy="716.87" rx="104.87" ry="9.18"/></svg>