<?xml version="1.0" encoding="UTF-8"?><svg id="hurricane_glass" xmlns="http://www.w3.org/2000/svg" viewBox="0 0 1000 1000"><defs><style>.cls-1{opacity:.2;}.cls-1,.cls-2,.cls-3,.cls-4,.cls-5{fill:#d1d3d4;stroke:#231f20;stroke-miterlimit:10;}.cls-2{opacity:.4;}.cls-3{opacity:.5;}.cls-4{opacity:.1;}.cls-5{opacity:.3;}</style></defs><rect class="cls-5" x="378.16" y="804.01" width="224.54" height="12.73" rx="6.37" ry="6.37"/><circle class="cls-3" cx="490.43" cy="738.03" r="33.51"/><path class="cls-1" d="m468.06,763.39c21.53,29.19,0,40.62,0,40.62h44.74s-21.53-11.43,0-40.62c0,0-9.18,8.15-22.37,8.15s-22.37-8.15-22.37-8.15Z"/><ellipse class="cls-1" cx="490.37" cy="146.01" rx="81.44" ry="1.77"/><ellipse class="cls-2" cx="490.43" cy="659.95" rx="17.59" ry="1.79"/><path class="cls-4" d="m571.81,146.01c-50.25,85.51-20.42,150.1-20.42,150.1,35.44,91.07,45.31,239.57,45.31,239.57,0,139.97-106.27,128.76-106.27,128.76,0,0-106.27,11.22-106.27-128.76,0,0,9.87-148.49,45.31-239.57,0,0,29.7-64.59-20.55-150.1,0,0-4.66,1.77,81.44,1.77s81.44-1.77,81.44-1.77Z"/><path class="cls-1" d="m508.37,709.72c-18.79-11.58-35.39-.4-35.39-.4,17.08-20.81,0-44.89,0-44.89h35.04s-17.08,24.08,0,44.89c0,0-16.6-11.18-35.39.4,0,0,17.69-18.82,0-45.83"/><path class="cls-5" d="m567.98,146.56s-23.95,1.22-77.61,1.22-77.48-1.22-77.48-1.22c30.07,49.63,31.39,102.9,24.41,132.06-6.98,29.16-12.53,39.48-12.53,39.48-35.22,127.86-37.01,225.21-37.01,225.21,6.73,120.01,85.09,116.64,85.09,116.64,0,0,.85,1.79,17.59,1.79s17.59-1.79,17.59-1.79c0,0,78.36,3.36,85.09-116.64,0,0-1.79-97.35-37.01-225.21,0,0-5.55-10.32-12.53-39.48-6.98-29.16-5.66-82.43,24.41-132.06"/></svg>