<?xml version="1.0" encoding="UTF-8"?><svg id="hurricane_glass_full" xmlns="http://www.w3.org/2000/svg" viewBox="0 0 1000 1000"><defs><style>.cls-1{fill:none;opacity:.5;}</style></defs><path class="cls-1" d="m436.31,205.29s.3-1.75,53.93-1.75,53.93,1.75,53.93,1.75c0,0-7.02,32.03-2.63,62.54s15.18,49.61,16.46,57.29,10.71,43.42,10.71,43.42c0,0,24.01,115.72,24.06,166.25s-18.06,121.02-84.76,125.16c0,0-1.63,1.79-17.59,1.79s-17.59-1.79-17.59-1.79c0,0-78.06,4.86-85.09-116.64,0,0,8.14-118.5,25.36-179.06l11.65-46.15s18.3-46.93,15.78-63.05c0,0,1.04-41.23-4.24-49.76Z"/></svg>