<?xml version="1.0" encoding="UTF-8"?><svg id="irish_coffee_glass" xmlns="http://www.w3.org/2000/svg" viewBox="0 0 1000 1000"><defs><style>.cls-1{opacity:.2;}.cls-1,.cls-2,.cls-3{fill:#d1d3d4;stroke:#231f20;stroke-miterlimit:10;}.cls-2{opacity:.4;}.cls-3{opacity:.3;}</style></defs><rect class="cls-2" x="344.49" y="768.23" width="251.98" height="15.57" rx="6.72" ry="6.72"/><path class="cls-1" d="m328.03,194.58c25.78,42.24,26.33,92.86,26.33,92.86v273.01c0,67.47,87.76,69.11,87.76,69.11v15.91c-40.04,15.36,0,21.94,0,21.94v17.55c-36.75,17,0,22.49,0,22.49v24.68c0,20.84-92.15,36.1-92.15,36.1h241.01s-92.15-15.25-92.15-36.1c0-20.84,0-24.68,0-24.68,0,0,36.75-5.49,0-22.49v-17.55s40.04-6.58,0-21.94v-15.91s87.76-1.65,87.76-69.11c0-67.47,0-273.01,0-273.01,0,0,.55-50.62,26.33-92.86,0,0,20.23,2.27-144.09,2.27s0,0,0,0c0,0-131.99.43-140.8-2.38"/><ellipse class="cls-3" cx="470.48" cy="625.06" rx="28.35" ry="1.85"/><path class="cls-1" d="m610.54,194.88c-25.96,20.84-29.24,92.55-29.24,92.55v283.43c-8.78,55.58-82.46,54.2-82.46,54.2,0,0,.72,1.85-28.35,1.85s-28.35-1.85-28.35-1.85c0,0-73.69,1.39-82.46-54.2v-283.43s-3.66-71.69-29.62-92.53c0,0-2.4,1.94,140.44,1.94s140.06-1.96,140.06-1.96Z"/><ellipse class="cls-3" cx="470.82" cy="194.47" rx="142.79" ry="2.38"/><path class="cls-1" d="m586.6,356.94s3.45-10.97,15.52-10.97,74.6-16.09,74.6,52.66-5.49,96.54-74.97,96.54c0,0-15.15.55-15.15-16.82v47.26c0-10.7,10.49-13.16,10.49-13.16,79.81,0,96.81-2.19,96.81-100.38s-74.33-85.3-89.96-85.3-17.35-7.41-17.35-7.41v37.57Z"/><path class="cls-2" d="m442.13,684.96h56.7s17.65,7.71,16.33,13.26-8.64,8.38-16.33,9.23h-56.7s-15.89-1.72-16.33-9.06,16.33-13.43,16.33-13.43Z"/><path class="cls-2" d="m498.83,667.4h-56.7s-18.3-3.39-17.79-9.19,13.9-11.42,17.79-12.75h58.04s17.32,6.6,16.26,11.34-.62,6.32-17.6,10.6Z"/></svg>