<?xml version="1.0" encoding="UTF-8"?><svg id="jar_glass" xmlns="http://www.w3.org/2000/svg" viewBox="0 0 1000 1000"><defs><style>.cls-1{opacity:.2;}.cls-1,.cls-2,.cls-3{stroke-miterlimit:10;}.cls-1,.cls-3{fill:#d1d3d4;stroke:#231f20;}.cls-2{fill:none;stroke:#d1d3d4;}.cls-3{opacity:.3;}</style></defs><ellipse class="cls-3" cx="500" cy="782.84" rx="151.74" ry="15.07"/><ellipse class="cls-1" cx="500" cy="217.16" rx="151.74" ry="15.07"/><path class="cls-3" d="m348.26,782.84s-17.8-10.11-17.8-28.43v-467.8s2.78-24.42,17.8-24.42c0,0-21.12-9.92,0-21.37,0,0-23.41-4.58,0-12.21v.89-12.34s-.43,15.07,151.74,15.07,151.74-15.07,151.74-15.07v12.34s0-.89,0-.89c23.41,7.63,0,12.21,0,12.21,21.12,11.45,0,21.37,0,21.37,15.02,0,17.8,24.42,17.8,24.42,0,0,0,449.49,0,467.8,0,18.32-17.8,28.43-17.8,28.43,0,0-1.67,15.07-152.63,15.07s-150.85-15.07-150.85-15.07Z"/><path class="cls-2" d="m346.23,250.74s122.36,20.86,302.71,0"/><path class="cls-2" d="m348.26,234.72s111.68,24.17,303.48,0"/></svg>