<?xml version="1.0" encoding="UTF-8"?><svg id="margarita_glass" xmlns="http://www.w3.org/2000/svg" viewBox="0 0 1000 1000"><defs><style>.cls-1{opacity:.2;}.cls-1,.cls-2,.cls-3{fill:#d1d3d4;stroke:#231f20;stroke-miterlimit:10;}.cls-2{opacity:.4;}.cls-3{opacity:.3;}</style></defs><path class="cls-1" d="m627.36,783.69c-37.92-9.62-110.72-29.28-110.72-38.46,0-12.41,0-289.88,0-289.88h-33.27s0,277.48,0,289.88c0,9.22-73.49,29.03-111.25,38.6"/><ellipse class="cls-2" cx="500" cy="153.87" rx="234.9" ry="5.92"/><ellipse class="cls-3" cx="500" cy="450.77" rx="16.64" ry="2.73"/><path class="cls-3" d="m640.25,793.29h-279.4c-2.61,0-4.73-2.12-4.73-4.73h0c0-2.61,2.12-4.73,4.73-4.73h13.17s266.23,0,266.23,0c2.61,0,4.73,2.12,4.73,4.73h0c0,2.61-2.12,4.73-4.73,4.73Z"/><path class="cls-1" d="m734.53,154.2c0,63.17-24.45,93.04-72.39,93.04s-78.96,2.82-78.96,107.72c0,104.9-66.55,100.39-66.55,100.39h-33.27s-66.55,4.51-66.55-100.39-31.02-107.72-78.96-107.72-72.51-29.93-72.51-93.1c0,0,13.87,5.65,234.65,5.65s234.53-5.59,234.53-5.59Z"/><path class="cls-1" d="m269.57,155.56s35.3,4.23,230.43,4.23,230.4-4.76,230.4-4.76c2.55,35.25-6.5,46.81-6.5,46.81-28.48,46.25-32.44,40.48-88.54,41.17s-51.6,55.27-58.09,134.51c-6.49,79.24-60.63,73.25-60.63,73.25,0,0-.67,2.73-16.64,2.73s-16.64-2.73-16.64-2.73c0,0-54.14,5.98-60.63-73.25-6.49-79.24-1.98-133.82-58.09-134.51-56.11-.69-60.06,5.08-88.54-41.17,0,0-9.05-11.56-6.5-46.81"/></svg>