<?xml version="1.0" encoding="UTF-8"?><svg id="margarita_glass_full" xmlns="http://www.w3.org/2000/svg" viewBox="0 0 1000 1000"><defs><style>.cls-1{fill:none;opacity:.5;}</style></defs><path class="cls-1" d="m269.7,178.95s-.05-5.58,230.3-5.58,230.3,5.58,230.3,5.58c0,0,1.42,18.88-22.75,46.83,0,0-11.47,16.32-33.28,16.74s-49.25-1.03-58.45,3.63-21.97,8.56-29.55,40.25-5.68,74.85-8.76,88.09c0,0-2.14,30.96-10.38,43.97s-16.25,30.43-50.49,32.31c0,0,.96,2.72-15.54,2.72s-17.74-2.72-17.74-2.72c0,0-33.23,3.15-49.93-31.2,0,0-11.31-18.69-11.94-58.62,0,0-3.58-63.36-7.41-72.99,0,0-5.01-36.87-34.01-43.06,0,0-5.89-2.67-47.26-2.07,0,0-29.93,2.25-42.13-19.27,0,0-21.21-23.99-20.98-44.62Z"/></svg>