<?xml version="1.0" encoding="UTF-8"?><svg id="nick_nora_glass" xmlns="http://www.w3.org/2000/svg" viewBox="0 0 1000 1000"><defs><style>.cls-1{opacity:.2;}.cls-1,.cls-2{fill:#d1d3d4;stroke:#231f20;stroke-miterlimit:10;}.cls-2{opacity:.3;}</style></defs><rect class="cls-2" x="366.93" y="766.22" width="264.49" height="10.65" rx="5.33" ry="5.33"/><path class="cls-1" d="m692.1,198.4c-13.58,213.16-105.75,225.84-140.67,239.42s-32.22,34.68-32.22,34.68v217.41c0,52.73,106.89,76.31,106.89,76.31h-253.83s106.89-23.58,106.89-76.31v-217.41s2.7-21.1-32.22-34.68c-34.93-13.58-127.09-26.26-140.67-239.42,0,0-18.52,4.72,192.92,4.72s192.92-4.72,192.92-4.72Z"/><ellipse class="cls-1" cx="499.18" cy="199.11" rx="192.92" ry="4.01"/><ellipse class="cls-2" cx="499.23" cy="445.83" rx="31.53" ry="2.79"/><path class="cls-2" d="m689.36,199.78c-1.53,13.24-10.84,124.28-53.41,176.67-42.57,52.39-71.43,51.9-83.31,56.03-11.88,4.12-21.98,13.35-21.98,13.35,0,0-2.02,2.79-30.66,2.79s-32.3-2.79-32.3-2.79c0,0-10.1-9.23-21.98-13.35-11.88-4.12-40.75-3.64-83.31-56.03-42.57-52.39-51.88-163.43-53.41-176.67,0,0,23.94,3.33,190.18,3.33s190.18-3.33,190.18-3.33Z"/></svg>