<?xml version="1.0" encoding="UTF-8"?><svg id="parfait_glass" xmlns="http://www.w3.org/2000/svg" viewBox="0 0 1000 1000"><defs><style>.cls-1,.cls-2,.cls-3,.cls-4,.cls-5{stroke:#231f20;stroke-miterlimit:10;}.cls-1,.cls-3{opacity:.2;}.cls-1,.cls-4,.cls-5{fill:#d1d3d4;}.cls-2,.cls-3{fill:none;}.cls-2,.cls-4{opacity:.1;}.cls-5{opacity:.3;}</style></defs><path class="cls-4" d="m313.59,207.36c17.3,14,4.91,43.56,17.68,55.09,12.77,11.53,11.12,21.01,11.12,21.01,37.89,364.1,118.62,372.33,118.62,372.33v74.96c0,23.23-33.07,38.53-59.53,47.05l198.77.07c-26.49-8.51-59.76-23.82-59.76-47.12v-74.96s80.73-8.24,118.62-372.33c0,0-1.65-9.47,11.12-21.01,12.77-11.53-1.24-40.89,16.06-54.89,0,0-29.42,3.84-186.3,3.84s-186.41-4.05-186.41-4.05"/><path class="cls-2" d="m461.01,655.49s3.29,4.32,39.75,4.32c36.45,0,39.75-4.32,39.75-4.32"/><ellipse class="cls-1" cx="500" cy="206.91" rx="186.89" ry="4.5"/><ellipse class="cls-1" cx="500.76" cy="650.83" rx="39.75" ry="4.67"/><path class="cls-1" d="m680.31,208.22c-4.14,5.89-5.95,17.69-5.95,17.69.82,30.48-4.74,32.74-4.74,32.74-14.31,11.43-12.7,14.35-12.7,14.35-40.09,365.2-116.42,377.83-116.42,377.83,0,0-.97,4.67-39.75,4.67s-39.75-4.67-39.75-4.67c0,0-76.33-12.63-116.42-377.83,0,0,1.61-2.92-12.7-14.35,0,0-5.56-2.27-4.74-32.74,0,0-1.81-11.8-5.95-17.69,0,0,35.25,3.18,178.8,3.18s180.31-3.18,180.31-3.18Z"/><rect class="cls-5" x="369.16" y="777.58" width="261.93" height="19.07" rx="9.54" ry="9.54"/><path class="cls-4" d="m327.96,258.16s28.11-42.55,104.49-.46c0,0,13.08,28.73,12.31,89.69l2.59,301.07s-17.57-11.28-39.04-57.97c0,0-27.65-50.52-51.51-197.75l-14.41-109.28s2.15-4.94-6.75-16.53c0,0-6.5-6.13-7.67-8.77Z"/><path class="cls-4" d="m673.55,257.7s-31.38-42.13-104.49,0c0,0-14.01,38-12.27,96.75s-2.68,294.05-2.68,294.05c0,0,29.63-22.67,50.22-85.55,0,0,24.54-74.17,28.46-103.57,0,0,17.21-92.2,17.41-101.81l8.93-74.12s-3.65-5.75,14.43-25.76Z"/><path class="cls-3" d="m432.45,257.7s5.46-18.59,68.3-18.59,68.3,18.59,68.3,18.59"/></svg>