<?xml version="1.0" encoding="UTF-8"?><svg id="parfait_glass_full" xmlns="http://www.w3.org/2000/svg" viewBox="0 0 1000 1000"><defs><style>.cls-1{fill:none;opacity:.5;}</style></defs><path class="cls-1" d="m344.59,277.83s-1.8-3.78,155.69-3.78,155.69,3.78,155.69,3.78c0,0-10.86,100.62-15.87,118.14,0,0-11.68,66.25-14.9,75.82,0,0-12.5,69.25-48.05,139.46,0,0-19.92,35.77-36.64,39.57,0,0-.81,4.67-40.5,4.67s-38.99-4.67-38.99-4.67c0,0-25.71-6.39-52.95-73.79,0,0-19.21-48.25-29.33-94.93,0,0-19.72-89.31-23.32-124.24l-10.82-80.04Z"/></svg>