<?xml version="1.0" encoding="UTF-8"?><svg id="pint_glass" xmlns="http://www.w3.org/2000/svg" viewBox="0 0 1000 1000"><defs><style>.cls-1{opacity:.2;}.cls-1,.cls-2{fill:#d1d3d4;stroke:#231f20;stroke-miterlimit:10;}.cls-2{opacity:.3;}</style></defs><ellipse class="cls-1" cx="487.37" cy="212.34" rx="172.66" ry="3.92"/><ellipse class="cls-2" cx="487.5" cy="716.01" rx="122.48" ry="6.75"/><path class="cls-2" d="m659.68,212.78s-26.51,3.48-172.32,3.48-172.11-3.48-172.11-3.48l49.91,556.42s3.07,23.52,121.49,23.52c118.42,0,121.49-23.52,121.49-23.52l51.54-556.42Z"/><path class="cls-1" d="m360.95,722.14s1.24,5.75,126.72,5.75,124.95-6.19,124.95-6.19l-4.47,47.51s-2.72,23.52-120.48,23.52-122.49-23.52-122.49-23.52l-4.22-47.06Z"/><path class="cls-1" d="m317.61,213.03s38.9,3.24,154.63,3.24,185.16-3.24,185.16-3.24l-47.41,502.16s8.51,7.58-122.48,7.58-122.48-6.75-122.48-6.75l-47.41-502.99"/></svg>