<?xml version="1.0" encoding="UTF-8"?><svg id="pousse_cafe_glass" xmlns="http://www.w3.org/2000/svg" viewBox="0 0 1000 1000"><defs><style>.cls-1{opacity:.2;}.cls-1,.cls-2{fill:#d1d3d4;stroke:#231f20;stroke-miterlimit:10;}.cls-2{opacity:.3;}</style></defs><rect class="cls-2" x="366.46" y="787.75" width="267.07" height="10.76" rx="5.38" ry="5.38"/><path class="cls-1" d="m628.16,787.75s-98.39-22.8-102.18-107.24c-3.79-84.44,23.82-123.95,23.82-123.95,0,0,15.16-36.27,15.16-74.15,0-37.89,0-216.51,0-216.51,0,0-1.62-32.48,32.48-64.41h-194.86c34.1,31.93,32.48,64.41,32.48,64.41v216.51c0,37.89,15.16,74.15,15.16,74.15,0,0,27.6,39.51,23.82,123.95s-102.18,107.24-102.18,107.24"/><ellipse class="cls-2" cx="499.86" cy="539.95" rx="38.06" ry="4.04"/><path class="cls-1" d="m405.28,204.1c8.06,1.01,15.24,9.5,20.81,16.99,5.57,7.48,11.94,25.59,12.16,31.34.38,10.11,1.89,181.52,6.82,235.33s16.74,52.19,16.74,52.19c0,0,4.02,4.04,38.06,4.04s38.06-4.04,38.06-4.04c0,0,11.81,1.62,16.74-52.19,4.93-53.81,6.44-225.23,6.82-235.33.22-5.75,6.59-23.86,12.16-31.34,5.57-7.48,12.75-15.97,20.81-16.99h-189.17Z"/></svg>