<?xml version="1.0" encoding="UTF-8"?><svg id="punch_bowl_glass" xmlns="http://www.w3.org/2000/svg" viewBox="0 0 1000 1000"><defs><style>.cls-1{opacity:.2;}.cls-1,.cls-2{fill:#d1d3d4;stroke:#231f20;stroke-miterlimit:10;}.cls-2{opacity:.4;}</style></defs><ellipse class="cls-1" cx="500.07" cy="305.51" rx="296.69" ry="6.48"/><ellipse class="cls-2" cx="500.74" cy="650.45" rx="139.33" ry="3.67"/><path class="cls-1" d="m794.3,306.38c32.01,215.95,24.66,233.47,24.66,233.47-19.47,122.65-178.89,110.25-178.89,110.25-23.87,5-139.33,4.02-139.33,4.02-136.74,0-138.63-3.67-138.63-3.67,0,0-160.42,12.33-180.01-109.56,0,0-7.4-17.41,24.81-232.03l.45-2.29s46.81,5.67,307.43,5.67,279.51-5.86,279.51-5.86Z"/><path class="cls-1" d="m796.75,305.91s-17.92,6.34-296.72,6.34-296.69-6.48-296.69-6.48l.08.02s-16.32,65-26.77,211.27c-10.45,146.27,184.8,141.05,184.8,141.05l-8.82,28.57s1.31,14.2,147.41,14.2c146.11,0,147.41-14.2,147.41-14.2l-8.82-28.57s195.24,5.22,184.8-141.05c-10.45-146.27-26.6-211.51-26.6-211.51"/></svg>