<?xml version="1.0" encoding="UTF-8"?><svg id="shot_glass" xmlns="http://www.w3.org/2000/svg" viewBox="0 0 1000 1000"><defs><style>.cls-1{opacity:.2;}.cls-1,.cls-2{fill:#d1d3d4;stroke:#231f20;stroke-miterlimit:10;}.cls-3{fill:none;}.cls-2{opacity:.3;}</style></defs><path class="cls-1" d="m499.88,263.93c-.45,0-.91,0-1.36,0-45.47,0-90.57.19-135.29.54,0,0-.33,106.52,1.16,121.05,1.49,14.53,16.4,218.42,26.67,233.75,6.71,10.02,49.93,15.45,108.94,13.8,59.01,1.65,102.23-3.78,108.94-13.8,10.27-15.33,25.18-219.23,26.67-233.75,1.49-14.53,1.16-121.05,1.16-121.05-44.72-.35-89.82-.53-135.29-.54-.45,0-.91,0-1.36,0"/><path class="cls-1" d="m640.09,263.93c-.06,7.1-1.33,145.27-4.47,257.92,0,0-.82,29.51-8.03,147.25,0,.11-.03.47-.08.94-.11,1.01-.39,3.45-1.53,5.57,0,0-.98,1.82-3.15,3.6-8.03,6.58-38.72,8.11-38.72,8.11-13.93.7-25.71.86-34.57.91-9.77.05-16.38-.26-49.53-.1-33.15-.16-39.76.15-49.53.1-8.86-.05-20.64-.21-34.57-.91,0,0-30.69-1.54-38.72-8.11-2.17-1.77-3.15-3.6-3.15-3.6-1.14-2.11-1.42-4.55-1.53-5.57-.05-.47-.08-.83-.08-.94-7.21-117.73-8.03-147.25-8.03-147.25-3.14-112.65-4.41-250.82-4.47-257.92h280.18Z"/><path class="cls-2" d="m362.49,442.26c7.46,102.31,12.71,175.6,12.77,180.95,0,.43,0,2.02.99,3.77,2.02,3.56,6.8,5.29,10.72,6.27,27.95,7.02,91.11,7.08,91.11,7.08,5.68,0,13.09.04,21.8.18h.25c8.71-.13,16.12-.17,21.8-.18,0,0,63.16-.06,91.11-7.08,3.92-.99,8.7-2.72,10.72-6.27.99-1.75.98-3.34.99-3.77.06-5.35,5.31-78.64,12.77-180.95l2.58-177.63-3.31-.17-1.03,119.45s-17.36,219.74-23.75,226.13c0,0,2.52,14.06-23.05,18.04,0,0-10.83,5.02-87.66,5.02s-85.22-2.8-101.57-7.88c0,0-10.24-1.97-11.53-14.35,0,0-12.76-84.95-12.76-98.36l-11.05-127.01-1.16-121.05-3.31-.24,2.58,178.03Z"/><path class="cls-3" d="m364.48,383.43l-1.03-119.2h273.36l-.98,117.68-10.45,122.28s-9.29,93.2-11,95.99c0,0-1.42,20.74-11.52,23.66s-14.87,9.22-102.85,9.22-90.03-3.78-100.39-8.01-10.6-8.5-12.42-20.95-13.97-98.7-13.86-114.16l-8.85-106.52Z"/><path class="cls-2" d="m500,627.87c-.75,0-1.51,0-2.26,0-53.98,0-97.74-3.51-97.74-7.85s43.76-7.85,97.74-7.85c.76,0,1.51,0,2.26,0,.75,0,1.51,0,2.26,0,53.98,0,97.74,3.51,97.74,7.85s-43.76,7.85-97.74,7.85c-.76,0-1.51,0-2.26,0Z"/></svg>