<?xml version="1.0" encoding="UTF-8"?><svg id="wine_glass" xmlns="http://www.w3.org/2000/svg" viewBox="0 0 1000 1000"><defs><style>.cls-1{opacity:.2;}.cls-1,.cls-2,.cls-3{fill:#d1d3d4;stroke-miterlimit:10;}.cls-1,.cls-3{stroke:#231f20;}.cls-2{stroke:#bcbec0;}.cls-3{opacity:.3;}</style></defs><rect class="cls-3" x="334.24" y="849.51" width="331.52" height="13.35" rx="6.68" ry="6.68"/><path class="cls-1" d="m657.96,849.51h-315.9s147.2-28.03,147.2-53.62v-240.32h21.49v240.32c0,25.59,147.21,53.62,147.21,53.62Z"/><ellipse class="cls-3" cx="499.9" cy="154.39" rx="140.32" ry="2.75"/><ellipse class="cls-2" cx="500" cy="552.01" rx="10.75" ry="1.37"/><path class="cls-3" d="m640.22,154.39s3.56,2.75-140.32,2.75-140.32-2.75-140.32-2.75v.29s-45.69,86.67-45.69,245.24,175.37,155.65,175.37,155.65h21.49s175.37,2.92,175.37-155.65-45.69-245.24-45.69-245.24"/><path class="cls-3" d="m637.59,155.18l-137.69,1.97-137.77-1.97-.82,1.97c-32.69,72.81-41.52,179.19-41.52,179.19-32.02,227.04,169.47,215.67,169.47,215.67,0,0,1.18,1.37,10.75,1.37s10.75-1.37,10.75-1.37c0,0,201.49,11.37,169.47-215.67,0,0-8.83-106.39-41.52-179.19l-1.1-1.97Z"/></svg>