<?xml version="1.0" encoding="UTF-8"?><svg id="Layer_2" xmlns="http://www.w3.org/2000/svg" viewBox="0 0 555.57 639.57"><defs><style>.cls-1{fill:none;stroke:#231f20;stroke-linecap:round;stroke-width:17px;}.cls-1,.cls-2{stroke-miterlimit:10;}.cls-3{fill:#a68e6f;}.cls-4{fill:#754c29;}.cls-5{fill:#603913;}.cls-6{fill:#f6ddb9;}.cls-7{fill:#c49a6c;}.cls-2{stroke:#f1f2f2;}.cls-2,.cls-8{fill:#f0f1f1;}.cls-9{fill:#f1f2f2;}.cls-10{fill:#fbb040;}.cls-11{fill:#fba140;}.cls-12{fill:#8b5e3c;}</style></defs><g id="HaveFun"><path class="cls-3" d="m86.85,170.6s-47,43.01-73.26,131.07c-26.27,88.06-12.51,182,24.66,232.56,37.17,50.56,100.33,102.43,238.36,105.25,138.02,2.83,253.06-68.64,271.87-191.35,18.81-122.71-30.79-221.94-82.14-277.54-.76.46-2.06,1.21-3.77,1.92-4.21,1.75-7.8,2-8.92,2.08-12,.9-23.88,3.57-35.92,3.74-24.15.34-11.74,1.7-69.76,3.19-30.05.77-53.69.93-65.69.97-33.72.12-59.58-.38-74.33-.74-10.34-.25-17.55-.5-21.54-.65-17.55-.64-29.75-1.35-44.75-2.22-13.45-.78-2.97-.27-24.13-1.76-1.38-.1-6.27-.44-12.48-1.32-5.75-.82-3.78-.84-8.5-1.5-2.22-.31-4.06-.5-6.33-1.57-1.5-.71-2.63-1.54-3.36-2.15Z"/><path class="cls-12" d="m501.89,256.23s97.44,171.87-6.68,295.11l-47.87-37.95,54.55-257.16Z"/><path class="cls-5" d="m447.34,513.39l-26.9,38.8,26.56,36.55s42.93-28.23,47.95-37.04l-47.61-38.3Z"/><path class="cls-5" d="m105.51,513.63l-47.74,38.07c23.36,22.1,47.75,36.55,47.75,36.55l26.63-35.98-26.3-38.87"/><path class="cls-7" d="m276.6,423.29c.67.02,1.27-4.03,1.51-5.55,2.29-14.73,7.73-32.83,11.47-45.28,1.06-3.51,1.82-5.83,3.34-10.42,5.94-17.99,13.4-37.88,17.7-47.5,4.48-10.01,27.57-61.63,72.86-70.48,3.08-.6,10.85-1.9,20.72-.88,39.89,4.12,63.84,40.86,69.92,50.19,3.96,6.08,9.12,15.13,13.39,27.15-13.61,64.86-27.21,129.71-40.82,194.57l-26.24,37.1c-18.03,12.63-69.73,45.35-143.6,45.69-74.87.34-127.39-32.8-145.37-45.33-8.41-13.11-16.81-26.22-25.22-39.32l-40.73-191.28c3.19-9.71,19.28-55.41,64.09-72.97,7.8-3.06,19.42-7.61,34.34-6.12,51.98,5.16,81.51,77.3,88.49,94.34,2.92,7.14,11.05,28.45,15.41,47.23,4.94,21.25,7.41,31.87,7.58,33.62.1,1.01.49,5.23,1.16,5.25Z"/><polygon class="cls-12" points="222.38 445.94 276.6 423.29 330.19 445.94 222.38 445.94"/><polygon class="cls-4" points="501.89 256.23 508.94 270.26 455.79 520.09 447.35 513.22 501.89 256.23"/><path class="cls-12" d="m51.31,256.23s-97.44,171.87,6.68,295.11l47.87-37.95-54.55-257.16Z"/><polygon class="cls-4" points="51.31 256.23 44.27 270.26 97.41 520.09 105.86 513.22 51.31 256.23"/><path class="cls-12" d="m131.47,552.54c18.21,12.62,73.81,47.67,152.18,45.21,69.24-2.18,117.97-32.43,136.79-45.56,8.85,12.18,17.71,24.37,26.56,36.55-26.2,15.48-84.46,45.11-164.08,46.59-87.39,1.63-151.29-31.57-177.41-47.09,8.65-11.9,17.3-23.8,25.95-35.7Z"/><ellipse class="cls-7" cx="276.59" cy="170.6" rx="189.74" ry="12.19"/><ellipse class="cls-12" cx="276.81" cy="169.76" rx="147.49" ry="5.06"/><ellipse cx="370.61" cy="325.54" rx="23.67" ry="23.88"/><ellipse cx="181.74" cy="325.33" rx="23.67" ry="23.88"/><ellipse cx="267.31" cy="433.36" rx="4.85" ry="1.66"/><ellipse cx="285.9" cy="433.37" rx="4.85" ry="1.66"/><path class="cls-1" d="m277.71,503.52c39.48-.56,79.42-4.01,89.78-52.34"/><path class="cls-1" d="m277.71,503.52c-39.48.56-79.42,4.01-89.78,52.34"/><path class="cls-12" d="m420.6,168.63l-1.63,2.49c-3.19.4-7.75.78-13.49,1.12l3.11-4.75c5.27.36,9.34.75,12.01,1.14Z"/><path class="cls-6" d="m471.91,90.35l-51.31,78.28-1.63,2.49c-3.19.4-7.75.78-13.49,1.12l3.11-4.75,54.4-82.99,8.92,5.85Z"/><path class="cls-6" d="m496.58,52.91l-51.31,78.28-1.63,2.49c-3.19.4-7.75.78-13.49,1.12l3.11-4.75,54.4-82.99,8.92,5.85Z"/><path class="cls-10" d="m520.31,16.68c18.8,93.15,25.55,109.68,28.79,121.07,4.62,16.27,6.53,20.83,6.47,21.45-.19,1.92-18.7.6-24.96,0-58.19-5.54-96.71-30.51-96.71-30.51-52.11-28.01-68.4-49.65-75.56-62.87-3.54-6.53-5.13-10.57-5.81-13.02-.48-1.7.9-3.34,2.66-3.2,53.96,4.21,154.82-36.66,154.82-36.66"/><path class="cls-11" d="m511.38,13.31l-150.48,56.91s3.66,5.55,5.64,7.96l147.18-63.45-108.24,97.12,7.26,4.65,103.07-101.52-47.31,130.04,5.89,2.09,43.26-131.76,13.81,143.94,5.79.45-17.82-143.68-8.07-2.74Z"/><path class="cls-2" d="m526.45,5.89c0-2.98-2.41-5.39-5.39-5.39-.32,0-.91,0-1.57.23-4.23,1.47-8.79,10.77-9.48,12.21,3.44,1.24,6.88,2.49,10.31,3.73,1.66-1.9,4.81-5.76,5.93-9.33.06-.2.2-.75.2-1.46Z"/><path class="cls-9" d="m360.9,70.22l5.64,7.96c-2.45.92-4.9,1.84-7.34,2.76-1.48-2.85-2.97-5.7-4.45-8.54,2.05-.73,4.1-1.45,6.15-2.18Z"/><path class="cls-9" d="m405.48,111.85l7.26,4.65c-2.25,1.85-4.51,3.69-6.76,5.54-2.06-1.69-4.12-3.38-6.18-5.06,1.89-1.71,3.78-3.42,5.67-5.12Z"/><path class="cls-9" d="m468.51,145.01l5.89,2.09c-.66,1.94-1.33,3.87-1.99,5.81-2.02-.65-4.04-1.29-6.06-1.94.72-1.99,1.44-3.97,2.16-5.96Z"/><polyline class="cls-8" points="531.47 159.28 537.26 159.73 537.86 163.73 531.47 163.22"/><path d="m181.9,589.21l-8.8,23.29s.69,4.83,4.56,1.5c0,0,1.26-3.96,6.88-9.93,0,0,3.05-1.69,7.01,3.53l-.54,4.52s.6,2.92,3.41.57l5.18-18.19s-1.9-2.6-4.38-.37c-2.48,2.23-3.63,5.26-3.63,5.26,0,0-2.94.75-4.56-1.5l-1.23-8.21-3.9-.47Z"/><path d="m205.65,598.11l-4.55,20.82c2.03,3.11,4.31.6,4.31.6l2.51-8.5c1.44,1.8,6.34,2.15,6.34,2.15,0,0-.48,3.47.96,7.42,1.44,3.95,2.75,1.56,2.75,1.56l3.23-20.94c-3.23-10.17-15.56-3.11-15.56-3.11Zm7.48,9.7c-2.35,0-4.25-1.9-4.25-4.25s1.9-4.25,4.25-4.25c2.35,0,4.25,1.9,4.25,4.25s-1.9,4.25-4.25,4.25Z"/><path d="m232.57,600.02s-1.97,10.53.66,13.04c0,0,4.61,3.65,8.32,0l1.02-6.64,3.17-5.74s2.21-1.16,1.91,1.33-2.33,17.99-2.33,17.99c0,0-12.09,14.3-17.47-1.8,0,0-.6-8.01,1.2-17.53,0,0,1.2-2.16,3.53-.66Z"/><path d="m255.01,628l.4-27.78s12.45-.9,16.06.49c0,0,4.25,2.7.1,4.22l-9.42.23s-1.25,4.51.47,5.16c0,0,2.22,1.13,9.51.83,0,0,4.09,3.48-.26,5.94l-9.7-.32s-1.99,5.84.9,8.61c.97.2,1.94.4,2.91.59.84.16,2.03.42,3.45.83,1.29.38,2.09.61,2.07.78-.02.19-1,.36-5.53.22l-10.96.19Z"/><path d="m291.93,629.37l1.09-26.77,14-1.53s2.73,4.05.66,4.7c-2.08.66-3.72-.22-8.42,0l.33,6.23,6.56.11s3.83,3.39-.22,4.59l-7.44-.33s-3.06.98-3.28,11.16c0,0-.66,3.44-3.28,1.83Z"/><path d="m315.66,602.79s.22,22.2,3.4,22.55c3.18.35,9.94,2.26,13.38-1.29,3.43-3.54,2.81-8.36,2.81-8.36l-2.54-16.84s-2.24-1.02-2.96.45,1.55,18.56,1.55,18.56c0,0-3.45,8.25-8.37,1.26l-5.14-17.44s-2.2-1.9-2.13,1.1Z"/><path d="m344.9,621.12l-3.94-22.6s.66-5.54,4.5-1.04l2.19,6.67s4.16.27,5.26-4.3l1.03-6.73s1.79-2.06,2.87-.66l4.04,23.46s-.16,1.65-4.41.05l-2.41-6.22s-3.97,1.02-4.87,7.37c0,0,.34,5.2-4.25,4Z"/></g></svg>