<?xml version="1.0" encoding="UTF-8"?><svg id="var_smile" xmlns="http://www.w3.org/2000/svg" viewBox="0 0 1000 1000"><defs><style>.cls-1{fill:#a68e6f;}.cls-2{fill:#754c29;}.cls-3{fill:#603913;}.cls-4{fill:#f6ddb9;}.cls-5{fill:#c49a6c;}.cls-6{stroke:#f1f2f2;stroke-miterlimit:10;}.cls-6,.cls-7{fill:#f0f1f1;}.cls-8{fill:#f1f2f2;}.cls-9{fill:#fbb040;}.cls-10{fill:#fba140;}.cls-11{fill:#8b5e3c;}</style></defs><path class="cls-1" d="m224.99,288.99s-66.32,60.69-103.39,184.96c-37.07,124.27-17.66,256.84,34.8,328.19,52.46,71.35,141.59,144.54,336.36,148.53,194.77,3.99,357.11-96.86,383.65-270.03,26.54-173.16-43.45-313.19-115.92-391.65-1.07.66-2.91,1.71-5.31,2.7-5.94,2.47-11.01,2.82-12.59,2.94-16.94,1.27-33.7,5.04-50.69,5.28-34.07.48-16.57,2.4-98.44,4.5-42.41,1.09-75.76,1.31-92.7,1.37-47.58.17-84.08-.53-104.89-1.04-14.59-.36-24.76-.71-30.4-.91-24.77-.9-41.99-1.9-63.15-3.13-18.97-1.1-4.19-.38-34.05-2.48-1.95-.14-8.84-.62-17.62-1.87-8.12-1.15-5.33-1.18-12-2.11-3.13-.44-5.73-.71-8.94-2.22-2.12-1-3.71-2.17-4.74-3.03Z"/><path class="cls-11" d="m810.68,409.82s137.5,242.53-9.43,416.45l-67.55-53.55,76.97-362.9Z"/><path class="cls-3" d="m733.71,772.72l-37.96,54.75,37.49,51.58s60.58-39.83,67.66-52.27l-67.18-54.05Z"/><path class="cls-3" d="m251.33,773.06l-67.37,53.72c32.96,31.19,67.38,51.58,67.38,51.58l37.59-50.78-37.11-54.86"/><path class="cls-5" d="m492.76,645.58c.94.03,1.79-5.69,2.12-7.83,3.24-20.78,10.91-46.33,16.19-63.89,1.49-4.96,2.57-8.22,4.71-14.71,8.38-25.39,18.91-53.46,24.98-67.03,6.32-14.12,38.91-86.97,102.82-99.46,4.35-.85,15.31-2.68,29.24-1.24,56.29,5.81,90.08,57.66,98.67,70.83,5.59,8.58,12.86,21.36,18.89,38.31-19.2,91.52-38.4,183.04-57.61,274.57l-37.03,52.36c-25.44,17.83-98.4,64-202.65,64.47-105.66.48-179.77-46.28-205.14-63.97-11.86-18.5-23.72-36.99-35.58-55.49l-57.47-269.93c4.5-13.7,27.21-78.19,90.45-102.97,11.01-4.31,27.4-10.73,48.46-8.64,73.35,7.29,115.03,109.09,124.87,133.13,4.13,10.08,15.59,40.15,21.75,66.65,6.97,29.98,10.45,44.98,10.7,47.44.14,1.43.69,7.39,1.64,7.41Z"/><polygon class="cls-11" points="416.25 677.55 492.76 645.58 568.38 677.55 416.25 677.55"/><polygon class="cls-2" points="810.68 409.82 820.63 429.62 745.63 782.17 733.71 772.49 810.68 409.82"/><path class="cls-11" d="m174.85,409.82s-137.5,242.53,9.43,416.45l67.55-53.55-76.97-362.9Z"/><polygon class="cls-2" points="174.85 409.82 164.9 429.62 239.9 782.17 251.82 772.49 174.85 409.82"/><path class="cls-11" d="m287.96,827.97c25.7,17.81,104.16,67.27,214.76,63.79,97.72-3.07,166.48-45.76,193.03-64.3,12.5,17.19,24.99,34.39,37.49,51.58-36.97,21.84-119.19,63.66-231.54,65.75-123.32,2.3-213.49-44.55-250.35-66.45,12.21-16.79,24.41-33.59,36.62-50.38Z"/><ellipse class="cls-5" cx="492.75" cy="288.99" rx="267.75" ry="17.2"/><ellipse class="cls-11" cx="493.06" cy="287.81" rx="208.13" ry="7.14"/><ellipse cx="625.43" cy="507.64" rx="33.4" ry="33.69"/><ellipse cx="358.9" cy="507.35" rx="33.4" ry="33.69"/><ellipse cx="479.65" cy="659.78" rx="6.84" ry="2.34"/><ellipse cx="505.88" cy="659.81" rx="6.84" ry="2.34"/><path class="cls-11" d="m695.96,286.2l-2.3,3.51c-4.5.57-10.94,1.1-19.03,1.58l4.38-6.7c7.44.51,13.18,1.05,16.95,1.61Z"/><path class="cls-4" d="m768.37,175.74l-72.41,110.46-2.3,3.51c-4.5.57-10.94,1.1-19.03,1.58l4.38-6.7,76.77-117.12,12.59,8.26Z"/><path class="cls-4" d="m803.19,122.91l-72.41,110.46-2.3,3.51c-4.5.57-10.94,1.1-19.03,1.58l4.38-6.7,76.77-117.12,12.59,8.26Z"/><path class="cls-9" d="m836.68,71.79c26.53,131.45,36.05,154.78,40.62,170.85,6.52,22.96,9.22,29.4,9.13,30.27-.27,2.71-26.39.84-35.23,0-82.12-7.81-136.47-43.05-136.47-43.05-73.54-39.53-96.52-70.06-106.63-88.72-4.99-9.21-7.23-14.91-8.2-18.37-.67-2.4,1.27-4.71,3.75-4.52,76.14,5.95,218.47-51.73,218.47-51.73"/><path class="cls-10" d="m824.07,67.03l-212.35,80.3s5.17,7.83,7.96,11.24l207.69-89.54-152.75,137.05,10.25,6.56,145.46-143.27-66.76,183.51,8.31,2.95,61.05-185.93,19.49,203.12,8.17.64-25.14-202.76-11.38-3.87Z"/><path class="cls-6" d="m845.34,56.56c0-4.2-3.41-7.61-7.61-7.61-.46,0-1.28,0-2.22.33-5.97,2.08-12.4,15.19-13.38,17.23,4.85,1.76,9.7,3.51,14.55,5.27,2.35-2.68,6.79-8.13,8.37-13.17.09-.29.28-1.05.28-2.06Z"/><path class="cls-8" d="m611.72,147.34l7.96,11.24c-3.45,1.3-6.91,2.6-10.36,3.89-2.09-4.02-4.18-8.04-6.28-12.06,2.89-1.03,5.78-2.05,8.68-3.08Z"/><path class="cls-8" d="m674.63,206.08l10.25,6.56c-3.18,2.6-6.36,5.21-9.54,7.81-2.91-2.38-5.81-4.76-8.72-7.15,2.67-2.41,5.34-4.82,8.01-7.23Z"/><path class="cls-8" d="m763.58,252.89l8.31,2.95c-.94,2.73-1.87,5.47-2.81,8.2-2.85-.91-5.7-1.83-8.55-2.74,1.01-2.8,2.03-5.61,3.04-8.41Z"/><polyline class="cls-7" points="852.43 273.02 860.6 273.66 861.45 279.3 852.43 278.58"/><path d="m359.13,879.72l-12.42,32.87s.97,6.81,6.44,2.11c0,0,1.79-5.59,9.71-14.01,0,0,4.3-2.38,9.89,4.98l-.76,6.38s.85,4.12,4.81.8l7.32-25.67s-2.68-3.67-6.18-.52c-3.5,3.15-5.13,7.42-5.13,7.42,0,0-4.14,1.07-6.44-2.11l-1.73-11.59-5.5-.66Z"/><path d="m392.64,892.28l-6.42,29.38c2.87,4.39,6.08.84,6.08.84l3.55-11.99c2.03,2.53,8.95,3.04,8.95,3.04,0,0-.68,4.9,1.35,10.47,2.03,5.57,3.88,2.2,3.88,2.2l4.56-29.55c-4.56-14.35-21.95-4.39-21.95-4.39Zm10.55,13.68c-3.31,0-6-2.68-6-6,0-3.31,2.68-6,6-6s6,2.68,6,6-2.68,6-6,6Z"/><path d="m430.64,894.97s-2.79,14.86.93,18.41c0,0,6.5,5.15,11.74,0l1.44-9.37,4.48-8.11s3.12-1.64,2.7,1.88c-.42,3.52-3.29,25.39-3.29,25.39,0,0-17.06,20.18-24.66-2.53,0,0-.84-11.3,1.69-24.73,0,0,1.69-3.05,4.98-.93Z"/><path d="m462.3,934.45l.56-39.2s17.56-1.27,22.66.69c0,0,6,3.81.14,5.96l-13.29.32s-1.76,6.37.66,7.28c0,0,3.13,1.59,13.43,1.17,0,0,5.77,4.92-.37,8.38l-13.68-.45s-2.8,8.25,1.26,12.15c1.37.28,2.74.56,4.11.84,1.18.23,2.87.59,4.87,1.17,1.83.53,2.95.86,2.93,1.11-.03.27-1.42.51-7.8.3l-15.47.27Z"/><path d="m514.4,936.39l1.54-37.77,19.76-2.16s3.86,5.71.93,6.64c-2.93.93-5.25-.31-11.88,0l.46,8.8,9.26.15s5.4,4.78-.31,6.48l-10.5-.46s-4.32,1.39-4.63,15.74c0,0-.93,4.86-4.63,2.58Z"/><path d="m547.89,898.88s.31,31.33,4.8,31.83c4.49.5,14.03,3.19,18.87-1.82,4.84-5,3.97-11.79,3.97-11.79l-3.58-23.76s-3.16-1.44-4.18.63c-1.01,2.07,2.18,26.18,2.18,26.18,0,0-4.87,11.64-11.81,1.78l-7.25-24.61s-3.1-2.69-3.01,1.56Z"/><path d="m589.15,924.74l-5.56-31.89s.93-7.82,6.35-1.47l3.09,9.41s5.87.38,7.42-6.06l1.45-9.5s2.52-2.9,4.04-.94l5.7,33.11s-.22,2.33-6.22.07l-3.4-8.78s-5.6,1.43-6.87,10.4c0,0,.48,7.34-6,5.65Z"/></svg>